<svg width="1024" height="1024" fill="none" xmlns="http://www.w3.org/2000/svg">
	<path class="dynamic"
		d="M520.357 384.929C517.5 356.119 505.238 333.738 483.571 317.786C461.905 301.833 432.5 293.857 395.357 293.857C370.119 293.857 348.81 297.429 331.429 304.571C314.048 311.476 300.714 321.119 291.429 333.5C282.381 345.881 277.857 359.929 277.857 375.643C277.381 388.738 280.119 400.167 286.071 409.929C292.262 419.69 300.714 428.143 311.429 435.286C322.143 442.19 334.524 448.262 348.571 453.5C362.619 458.5 377.619 462.786 393.571 466.357L459.286 482.071C491.19 489.214 520.476 498.738 547.143 510.643C573.81 522.548 596.905 537.19 616.429 554.571C635.952 571.952 651.071 592.429 661.786 616C672.738 639.571 678.333 666.595 678.571 697.071C678.333 741.833 666.905 780.643 644.286 813.5C621.905 846.119 589.524 871.476 547.143 889.571C505 907.429 454.167 916.357 394.643 916.357C335.595 916.357 284.167 907.31 240.357 889.214C196.786 871.119 162.738 844.333 138.214 808.857C113.929 773.143 101.19 728.976 100 676.357H249.643C251.31 700.881 258.333 721.357 270.714 737.786C283.333 753.976 300.119 766.238 321.071 774.571C342.262 782.667 366.19 786.714 392.857 786.714C419.048 786.714 441.786 782.905 461.071 775.286C480.595 767.667 495.714 757.071 506.429 743.5C517.143 729.929 522.5 714.333 522.5 696.714C522.5 680.286 517.619 666.476 507.857 655.286C498.333 644.095 484.286 634.571 465.714 626.714C447.381 618.857 424.881 611.714 398.214 605.286L318.571 585.286C256.905 570.286 208.214 546.833 172.5 514.929C136.786 483.024 119.048 440.048 119.286 386C119.048 341.714 130.833 303.024 154.643 269.929C178.69 236.833 211.667 211 253.571 192.429C295.476 173.857 343.095 164.571 396.429 164.571C450.714 164.571 498.095 173.857 538.571 192.429C579.286 211 610.952 236.833 633.571 269.929C656.19 303.024 667.857 341.357 668.571 384.929H520.357ZM868.661 915.286C845.089 915.286 824.851 906.952 807.946 890.286C791.28 873.381 782.946 853.143 782.946 829.571C782.946 806.238 791.28 786.238 807.946 769.571C824.851 752.905 845.089 744.571 868.661 744.571C891.518 744.571 911.518 752.905 928.661 769.571C945.804 786.238 954.375 806.238 954.375 829.571C954.375 845.286 950.327 859.69 942.232 872.786C934.375 885.643 924.018 896 911.161 903.857C898.304 911.476 884.137 915.286 868.661 915.286Z"></path>
	<style>
		path.dynamic { fill: #000000; }@media (prefers-color-scheme: dark) {path.dynamic { fill:
		#FFFFFF; }}
	</style>
</svg>